<?xml version="1.0" standalone="no"?>
<!DOCTYPE svg PUBLIC "-//W3C//DTD SVG 20010904//EN"
 "http://www.w3.org/TR/2001/REC-SVG-20010904/DTD/svg10.dtd">
<svg version="1.0" xmlns="http://www.w3.org/2000/svg"
 width="500.000000pt" height="500.000000pt" viewBox="0 0 500.000000 500.000000"
 preserveAspectRatio="xMidYMid meet">

<g transform="translate(0.000000,500.000000) scale(0.100000,-0.100000)"
fill="#000000" stroke="none">
<path d="M1563 2748 c2 -7 33 -91 67 -186 l63 -173 45 3 44 3 64 173 c35 96
64 178 64 184 0 5 -17 8 -37 6 l-36 -3 -46 -137 c-25 -75 -49 -139 -52 -142
-3 -3 -28 59 -55 139 l-49 145 -39 0 c-26 0 -37 -4 -33 -12z"/>
<path d="M2025 2676 c-44 -19 -85 -72 -86 -109 -4 -118 44 -177 146 -177 92 0
147 57 147 153 0 104 -113 176 -207 133z m94 -61 c33 -16 41 -33 41 -81 0 -71
-78 -108 -127 -62 -40 38 -28 129 20 148 31 12 34 12 66 -5z"/>
<path d="M2650 2673 c-44 -23 -70 -73 -70 -136 0 -90 50 -147 130 -147 33 0
55 6 74 21 l26 20 0 -20 c0 -17 6 -21 35 -21 l35 0 0 145 0 145 -35 0 c-24 0
-35 -5 -35 -15 0 -19 -9 -19 -31 1 -27 24 -89 28 -129 7z m138 -79 c26 -29 28
-63 7 -104 -39 -75 -145 -36 -145 52 0 30 26 67 54 78 29 12 57 3 84 -26z"/>
<path d="M3000 2672 c-44 -21 -70 -72 -70 -135 0 -89 50 -147 127 -147 29 0
55 7 74 21 l29 20 0 -34 c0 -75 -74 -113 -133 -67 -22 18 -87 29 -87 15 0 -4
7 -20 16 -36 19 -37 67 -59 131 -59 60 0 91 16 120 59 22 32 23 44 23 202 l0
169 -35 0 c-24 0 -35 -5 -35 -15 0 -12 -6 -12 -37 5 -46 25 -77 25 -123 2z
m138 -78 c26 -29 28 -63 7 -104 -39 -75 -145 -36 -145 52 0 30 26 67 54 78 29
12 57 3 84 -26z"/>
<path d="M3361 2672 c-48 -24 -73 -62 -79 -120 -9 -95 50 -162 142 -162 55 0
96 19 120 54 9 14 16 28 16 31 0 12 -79 4 -90 -10 -13 -16 -67 -20 -86 -7 -11
7 -34 45 -34 56 0 3 50 6 110 6 l110 0 0 34 c0 66 -74 136 -145 136 -16 0 -45
-8 -64 -18z m107 -58 c12 -8 22 -24 22 -35 0 -17 -7 -19 -64 -19 -36 0 -68 4
-71 10 -9 15 41 60 67 60 13 0 34 -7 46 -16z"/>
<path d="M2309 2539 l59 -142 -29 -64 c-16 -36 -29 -69 -29 -75 0 -5 16 -8 36
-6 l36 3 82 195 c45 108 85 204 89 213 5 14 0 17 -31 17 l-37 0 -29 -77 c-16
-43 -33 -89 -38 -103 -9 -23 -13 -15 -47 75 l-38 100 -41 3 -41 3 58 -142z"/>
</g>
</svg>
